<svg width="84" height="84" viewBox="0 0 84 84" fill="none" xmlns="http://www.w3.org/2000/svg">
<path d="M18.525 23.9775C18.525 21.933 18.876 20.688 19.068 19.218L20.25 10.563C20.3445 9.73199 20.409 9.28499 20.409 8.99849C20.409 8.51849 20.0895 8.13599 19.515 8.13599C19.035 8.13599 18.621 8.61599 17.9505 9.41249L10.764 18.324V18.834C14.022 20.304 14.82 20.9115 14.82 23.9775L14.4045 44.1945C8.847 53.904 0 73.23 0 78.0495C0 80.286 1.5 81.6285 3.195 81.6285C4.7595 81.6285 5.685 80.6685 6.9945 79.2645C8.2095 77.955 11.6895 74.5365 13.35 72.909C14.085 72.1425 15.2355 70.959 16.4805 70.959C17.7255 70.959 18.8445 72.1425 19.611 72.909C21.24 74.5365 24.753 77.955 25.9665 79.2645C27.2115 80.67 28.1715 81.627 29.7675 81.627C31.4595 81.627 32.9295 80.286 32.9295 78.051C32.9295 73.2915 24.2415 54.288 18.78 44.61L18.525 23.9775ZM60.015 64.923C61.419 62.784 62.856 60.6435 62.856 56.8425C62.856 53.49 61.9935 51.285 61.9935 49.6875C61.9935 48.156 64.038 46.8135 68.9235 46.8135C73.812 46.8135 75.855 48.156 75.855 49.689C75.855 51.285 74.994 53.49 74.994 56.844C74.994 63.966 80.2305 65.403 80.2305 71.535C80.2305 75.783 75.5685 77.8275 68.925 77.8275C65.571 77.8275 62.7915 77.3805 60.5565 76.167C60.0603 77.3404 59.4166 78.4458 58.641 79.4565C61.641 81.0855 65.187 81.564 68.925 81.564C76.782 81.564 84 79.137 84 71.2155C84 63.231 78.795 62.3355 78.795 57.099C78.795 53.7765 79.848 51.159 79.848 48.858C79.848 45.9195 76.5255 43.7805 71.097 43.3965L70.7445 23.7225C70.7145 21.7725 73.4925 20.88 73.3965 19.7925C72.981 14.619 72.63 12.1275 72.4695 10.947C72.2775 9.66899 71.16 9.09449 68.925 9.09449C66.69 9.09449 65.571 9.66899 65.379 10.947C65.22 12.1275 64.869 14.619 64.4535 19.794C64.389 20.88 67.1355 21.774 67.104 23.7225L66.753 43.3965C61.2915 43.812 58.002 45.9195 58.002 48.858C58.002 51.1575 59.088 53.778 59.088 57.099C59.088 58.6635 58.5765 59.9085 57.906 60.963C58.7808 62.1838 59.491 63.5155 60.015 64.923ZM32.7045 67.065C34.302 64.1265 37.3035 61.3155 37.3035 56.685C37.3035 51.639 34.8135 49.434 34.8135 48.636L35.163 48.5085C36.0255 49.5945 37.368 51.3195 39.411 51.3195C41.1045 51.3195 42.2865 50.424 42.957 48.732C43.6275 50.424 44.7765 51.3195 46.5015 51.3195C48.546 51.3195 49.887 49.5945 50.7495 48.5085L51.069 48.636C51.069 49.434 48.609 51.639 48.609 56.685C48.609 63.2955 54.231 65.4045 54.231 71.217C54.231 75.432 49.6005 77.829 42.957 77.829C40.2105 77.829 37.878 77.4135 36.057 76.71C36.09 77.8605 35.9295 79.7445 35.61 80.5755C37.974 81.3105 40.434 81.5655 42.957 81.5655C50.814 81.5655 58.032 78.7875 58.032 71.217C58.032 63.552 52.41 61.731 52.41 56.301C52.41 51.798 55.4445 48.987 55.4445 46.6245C55.4445 45.0585 53.9745 43.5585 52.2825 43.5585C51.006 43.5585 50.3025 44.5485 49.8225 45.186C48.897 46.401 48.5145 47.454 46.662 47.454C45.7995 47.454 45.417 47.2305 45.192 46.815L44.841 23.724C44.841 21.36 45.6075 20.976 46.056 20.721C46.4055 20.466 46.6935 20.211 46.6935 19.635C46.6935 14.397 48.1635 13.152 48.1635 11.778C48.1635 11.268 47.6835 11.139 47.109 10.7565C46.182 10.086 44.4585 9.09599 42.9885 9.09599C41.5185 9.09599 39.7935 10.086 38.868 10.7565C38.325 11.139 37.815 11.2665 37.815 11.778C37.815 13.152 39.285 14.397 39.285 19.635C39.285 20.2095 39.57 20.466 39.954 20.721C40.3695 20.976 41.169 21.3285 41.169 23.724L40.7535 46.752C40.5615 47.199 40.1775 47.454 39.252 47.454C37.3995 47.454 37.017 46.401 36.09 45.219C35.61 44.5485 34.875 43.5585 33.63 43.5585C31.938 43.5585 30.468 45.0585 30.468 46.6245C30.468 48.987 33.5025 51.798 33.5025 56.301C33.5025 58.8885 32.097 60.8055 30.852 62.658C31.5225 64.128 32.1615 65.5965 32.7045 67.065ZM16.479 67.1925C14.595 67.1925 12.999 68.535 11.274 70.0995C9.294 71.8545 6.897 74.3475 4.2465 77.478C4.119 77.637 3.831 77.6055 3.8625 77.286C4.662 72.048 11.2095 57.7065 16.479 48.2205C21.7485 57.675 28.296 72.015 29.094 77.286C29.127 77.541 28.809 77.637 28.6485 77.4135C26.061 74.3475 23.634 71.856 21.6525 70.0995C19.9605 68.5335 18.363 67.1925 16.479 67.1925ZM68.9235 59.8785C69.8198 59.8734 70.678 59.515 71.3118 58.8812C71.9455 58.2475 72.3039 57.3893 72.309 56.493C72.3039 55.5967 71.9455 54.7385 71.3118 54.1047C70.678 53.4709 69.8198 53.1126 68.9235 53.1075C68.0272 53.1126 67.169 53.4709 66.5352 54.1047C65.9015 54.7385 65.5431 55.5967 65.538 56.493C65.5431 57.3893 65.9015 58.2475 66.5352 58.8812C67.169 59.515 68.0272 59.8734 68.9235 59.8785Z" fill="white"/>
</svg>
